<?xml version="1.0" encoding="utf-8"?>
<!-- Generator: Adobe Illustrator 27.5.0, SVG Export Plug-In . SVG Version: 6.00 Build 0)  -->
<svg version="1.1" xmlns="http://www.w3.org/2000/svg" xmlns:xlink="http://www.w3.org/1999/xlink" x="0px" y="0px"
	 viewBox="0 0 500 499.999" style="enable-background:new 0 0 500 499.999;" xml:space="preserve">
<g id="BACKGROUND">
	<g>
		<rect x="0" y="-0.001" style="fill-rule:evenodd;clip-rule:evenodd;fill:#FFFFFF;" width="500" height="500"/>
	</g>
</g>
<g id="OBJECTS">
	<g>
		<path style="fill:#D9D9D9;" d="M460.278,422.481c0,12.533-71.471,22.696-159.638,22.696c-88.166,0-159.639-10.163-159.639-22.696
			c0-12.527,71.473-22.689,159.639-22.689C388.807,399.792,460.278,409.954,460.278,422.481z"/>
		<g>
			<g>
				<g>
					<path style="fill:#814113;" d="M257.252,382.321c1.903-1.385,6.161-4.383,7.793-6.359c3.96-4.787,8.136-9.179,9.502-10.604
						l18.949-0.833c0,0,2.715,11.266,2.342,15.533c-0.264,2.969-2.326,3.577-6.423,6.226c-2.566,1.668-7.856,6.321-11.894,8.464
						c-4.293,2.273-15.569,2.696-20.149,0.917C247.763,391.929,251.869,386.214,257.252,382.321z"/>
					<g>
						<path style="fill:none;stroke:#B58E45;stroke-miterlimit:10;" d="M280.831,372.291c0,0-4.777-2.139-9.826-1.537"/>
						<path style="fill:none;stroke:#B58E45;stroke-miterlimit:10;" d="M277.59,376.953c0,0-4.778-2.137-9.829-1.531"/>
						<path style="fill:none;stroke:#B58E45;stroke-miterlimit:10;" d="M258.971,395.138c0,0,8.167,0.737,14.628-1.31
							c5.518-1.747,9.323-8.284,14.552-10.46c5.227-2.181,6.897-5.601,6.897-5.601"/>
					</g>
				</g>
				<path style="fill:#3D3977;" d="M280.753,271.599c-6.678-1.649-20.987-9.356-21.06-1.21c-0.073,8.146,4.786,32.501,5.348,35.825
					c3.171,18.691,5.35,58.657,5.35,58.657s2.435,2.946,11.143,3.585c9.031,0.662,21.253-3.116,21.253-3.116
					s-1.616-10.814-1.611-20.137c0.005-9.323-0.757-33.495-1.076-41.988c-0.279-7.426-4.987-20.802-6.168-24.05
					C289.335,278.656,285.026,272.655,280.753,271.599z"/>
				<path style="fill:#3D3977;" d="M259.874,261.876c-2.754,6.608-0.786,19.043,7.914,24.22c8.701,5.177,22.372-3.842,29.311-5.604
					c6.939-1.761,20.552-3.938,31.964-10.858c11.408-6.916,15.295-12.59,15.295-12.59c-3.678-5.692-18.992-35.701-18.992-35.701
					s-35.334,14.964-47.184,24.051C273.132,249.267,262.628,255.268,259.874,261.876z"/>
			</g>
			<g>
				<path style="fill:#949494;" d="M336.715,278.025c-0.046,0.23-0.476,0.337-0.961,0.242l-4.745-0.936
					c-0.485-0.096-0.842-0.359-0.796-0.588l3.234-16.409c0.045-0.229,0.476-0.337,0.96-0.242l4.745,0.935
					c0.485,0.096,0.842,0.359,0.796,0.589L336.715,278.025z"/>
				<g>
					<path style="fill:#949494;" d="M309.339,340.348c0.378,1.305-0.372,2.672-1.677,3.049l-22.183,6.442
						c-1.306,0.379-2.671-0.372-3.05-1.678l-1.043-3.59c-0.38-1.306,0.371-2.672,1.676-3.05l22.182-6.442
						c1.306-0.379,2.672,0.371,3.052,1.677L309.339,340.348z"/>
					<g>
						<path style="fill:#522016;" d="M318.825,359.101c-0.563,0.164-1.19,0.109-1.744-0.202l-23.625-13.341
							c-1.089-0.614-1.473-1.995-0.858-3.082c0.616-1.091,1.996-1.474,3.083-0.86l23.626,13.342
							c1.088,0.613,1.473,1.995,0.858,3.082C319.863,358.578,319.374,358.943,318.825,359.101z"/>
					</g>
				</g>
				<g>
					<g>
						<g>
							<path style="fill:#9F3948;" d="M260.73,371.524c2.87,0,5.198-2.327,5.198-5.197c0-37.645-30.626-68.269-68.27-68.269
								c-2.871,0-5.199,2.327-5.199,5.197c0,2.872,2.328,5.201,5.199,5.201c31.911,0,57.872,25.961,57.872,57.872
								C255.53,369.197,257.858,371.524,260.73,371.524z"/>
						</g>
						<g>
							<g>
								<g>
									<line style="fill:none;stroke:#A6A6A6;stroke-miterlimit:10;" x1="197.71" y1="312.134" x2="197.71" y2="419.931"/>
									<line style="fill:none;stroke:#A6A6A6;stroke-miterlimit:10;" x1="251.609" y1="366.033" x2="143.811" y2="366.033"/>
								</g>
								<g>
									<line style="fill:none;stroke:#A6A6A6;stroke-miterlimit:10;" x1="183.761" y1="313.971" x2="211.661" y2="418.095"/>
									<line style="fill:none;stroke:#A6A6A6;stroke-miterlimit:10;" x1="249.772" y1="352.082" x2="145.648" y2="379.982"/>
								</g>
								<g>
									<line style="fill:none;stroke:#A6A6A6;stroke-miterlimit:10;" x1="170.761" y1="319.355" x2="224.661" y2="412.71"/>
									<line style="fill:none;stroke:#A6A6A6;stroke-miterlimit:10;" x1="244.388" y1="339.083" x2="151.033" y2="392.982"/>
								</g>
								<g>
									<line style="fill:none;stroke:#A6A6A6;stroke-miterlimit:10;" x1="159.6" y1="327.92" x2="235.823" y2="404.145"/>
									<line style="fill:none;stroke:#A6A6A6;stroke-miterlimit:10;" x1="235.822" y1="327.921" x2="159.6" y2="404.145"/>
								</g>
								<g>
									<line style="fill:none;stroke:#A6A6A6;stroke-miterlimit:10;" x1="151.034" y1="339.083" x2="244.389" y2="392.982"/>
									<line style="fill:none;stroke:#A6A6A6;stroke-miterlimit:10;" x1="224.66" y1="319.356" x2="170.762" y2="412.71"/>
								</g>
								<g>
									<line style="fill:none;stroke:#A6A6A6;stroke-miterlimit:10;" x1="145.65" y1="352.082" x2="249.774" y2="379.982"/>
									<line style="fill:none;stroke:#A6A6A6;stroke-miterlimit:10;" x1="211.662" y1="313.971" x2="183.763" y2="418.095"/>
								</g>
							</g>
							<g>
								<path style="fill:#522016;" d="M197.71,424.378c-32.173,0-58.346-26.173-58.346-58.344
									c0-32.173,26.172-58.347,58.346-58.347c32.172,0,58.345,26.174,58.345,58.347
									C256.055,398.205,229.882,424.378,197.71,424.378z M197.71,316.742c-27.181,0-49.292,22.112-49.292,49.293
									c0,27.18,22.111,49.292,49.292,49.292c27.179,0,49.29-22.111,49.29-49.292C247,338.854,224.889,316.742,197.71,316.742z"/>
							</g>
							<path style="fill:#522016;" d="M197.71,358.064c-4.395,0-7.969,3.575-7.969,7.969c0,4.394,3.575,7.969,7.969,7.969
								c4.394,0,7.969-3.575,7.969-7.969C205.679,361.638,202.104,358.064,197.71,358.064z"/>
						</g>
					</g>
					<g>
						<g>
							<path style="fill:#9F3948;" d="M463.389,371.524c2.869,0,5.198-2.327,5.198-5.197c0-37.645-30.624-68.269-68.271-68.269
								c-16.684,0-32.754,6.104-45.254,17.19c-2.148,1.906-2.345,5.192-0.439,7.34c1.904,2.147,5.19,2.346,7.338,0.44
								c10.596-9.397,24.217-14.572,38.355-14.572c31.915,0,57.876,25.961,57.876,57.872
								C458.192,369.197,460.518,371.524,463.389,371.524z"/>
						</g>
						<g>
							<g>
								<g>
									<line style="fill:none;stroke:#A6A6A6;stroke-miterlimit:10;" x1="400.317" y1="312.134" x2="400.317" y2="419.931"/>
									<line style="fill:none;stroke:#A6A6A6;stroke-miterlimit:10;" x1="454.216" y1="366.033" x2="346.418" y2="366.033"/>
								</g>
								<g>
									<line style="fill:none;stroke:#A6A6A6;stroke-miterlimit:10;" x1="386.367" y1="313.971" x2="414.268" y2="418.095"/>
									<line style="fill:none;stroke:#A6A6A6;stroke-miterlimit:10;" x1="452.378" y1="352.082" x2="348.255" y2="379.982"/>
								</g>
								<g>
									<line style="fill:none;stroke:#A6A6A6;stroke-miterlimit:10;" x1="373.368" y1="319.355" x2="427.268" y2="412.71"/>
									<line style="fill:none;stroke:#A6A6A6;stroke-miterlimit:10;" x1="446.995" y1="339.083" x2="353.64" y2="392.982"/>
								</g>
								<g>
									<line style="fill:none;stroke:#A6A6A6;stroke-miterlimit:10;" x1="362.206" y1="327.92" x2="438.432" y2="404.145"/>
									<line style="fill:none;stroke:#A6A6A6;stroke-miterlimit:10;" x1="438.43" y1="327.921" x2="362.206" y2="404.145"/>
								</g>
								<g>
									<line style="fill:none;stroke:#A6A6A6;stroke-miterlimit:10;" x1="353.641" y1="339.083" x2="446.995" y2="392.982"/>
									<line style="fill:none;stroke:#A6A6A6;stroke-miterlimit:10;" x1="427.266" y1="319.356" x2="373.369" y2="412.71"/>
								</g>
								<g>
									<line style="fill:none;stroke:#A6A6A6;stroke-miterlimit:10;" x1="348.257" y1="352.082" x2="452.38" y2="379.982"/>
									<line style="fill:none;stroke:#A6A6A6;stroke-miterlimit:10;" x1="414.268" y1="313.971" x2="386.369" y2="418.095"/>
								</g>
							</g>
							<g>
								<path style="fill:#522016;" d="M400.316,424.378c-32.173,0-58.345-26.173-58.345-58.344
									c0-32.173,26.172-58.347,58.345-58.347c32.172,0,58.346,26.174,58.346,58.347
									C458.662,398.205,432.488,424.378,400.316,424.378z M400.316,316.742c-27.18,0-49.292,22.112-49.292,49.293
									c0,27.18,22.112,49.292,49.292,49.292c27.179,0,49.292-22.111,49.292-49.292
									C449.608,338.854,427.495,316.742,400.316,316.742z"/>
							</g>
							<path style="fill:#522016;" d="M400.316,358.064c-4.394,0-7.969,3.575-7.969,7.969c0,4.394,3.575,7.969,7.969,7.969
								c4.394,0,7.969-3.575,7.969-7.969C408.285,361.638,404.71,358.064,400.316,358.064z"/>
						</g>
					</g>
				</g>
				<path style="fill:#949494;" d="M427.322,293.332c-2.576,4.786-3.243,10.205-5.441,15.125
					c-2.564,5.752-4.758,11.665-6.921,17.578c-2.167,5.924-3.993,11.965-6.163,17.892c-2.246,6.134-5.581,12.222-6.997,18.598
					c-0.284,1.274,1.393,2.541,2.364,1.377c3.334-4.002,5.088-9.139,7.061-13.907c2.41-5.823,4.434-11.815,6.373-17.807
					c2.156-6.673,4.756-13.263,7.498-19.717c2.319-5.467,3.392-11.59,6.218-16.806C432.731,293.045,428.735,290.708,427.322,293.332
					z"/>
				<g>
					<g>
						<g>
							<path style="fill:#ABABAB;" d="M241.501,253.667c0,0,3-8.5,4-11s-1.942-4.863-1.942-4.863
								c-5.439-1.599-13.13-3.101-13.24-7.257c-0.108-4.157,5.808-4.623,11.896-4.099c7.235,0.622,10.968,1.444,11.006,1.453
								l1.609-7.145c-0.168-0.038-4.185-0.934-11.988-1.604c-9.523-0.821-18.236,3.311-20.701,9.822
								c-0.602,1.591-0.5,3.274,0.295,4.871c2.097,4.212,9.67,7.388,14.393,9.013l-1.11,10.144L241.501,253.667z"/>
						</g>
						<path style="fill:#522016;" d="M266.376,222.18l-14.958-2.754c0,0-0.099-1.911-1.047-2.228
							c-0.949-0.319-3.372,0.003-3.774,2.415c-0.403,2.413-1.512,8.905-0.907,9.363c0.605,0.456,2.211,0.849,3.322,0.604
							c1.112-0.247,1.359-1.511,1.359-1.511s12.515,2.607,15.92,2.209C269.698,229.88,271.603,222.984,266.376,222.18z"/>
					</g>
					<path style="fill:#AE2221;" d="M201.647,366.522c5.815-5.39,12.775-25.684,17.354-37.355
						c4.575-11.669,10.215-27.798,10.215-27.798s65.264,46.378,70.116,50.051c-0.813,2.168-1.259,4.511-1.259,6.961
						c0,0.391,0.014,0.777,0.035,1.163c0.108,4.042,1.407,8.934,5.941,13.067c0.135,0.122,0.277,0.23,0.414,0.348
						c3.533,3.259,8.253,5.254,13.44,5.254c3.198,0,6.221-0.765,8.896-2.111c4.344,0.509,8.557,0.534,11.373,0.471
						c9.591-0.215,40.687,1.984,56.361-0.567c1.781,1.07,3.858,1.695,6.085,1.695c6.548,0,11.855-5.308,11.855-11.855
						c0-6.548-5.308-11.855-11.855-11.855c-1.837,0-3.57,0.43-5.123,1.175c-12.869-14.249-50.935-58.089-54.105-61.998
						c22.282,0.185,88.283,0.773,93.292,1.331c6.038,0.67-2.683-10.061-2.683-10.061l-95.902-1.969c0,0,2.092-6.466,1.087-7.972
						c-1.34-2.011-5.932-2.193-6.707-1.34c-0.772,0.852-6.51,38.205-7.976,43.01c-4.929,0.936-86.193-36.407-86.193-36.407
						s6.944-24.641,7.416-29.034c0.47-4.39-7.8-4.23-8.231-2.074c-0.431,2.156-9.414,31.135-11.953,40.075
						c-2.539,8.94-7.916,23.987-12.539,36.44c-4.62,12.455-13.654,33.469-16.232,37.341
						C192.605,365.766,195.834,371.914,201.647,366.522z M390.443,359.785c-3.94-1.343-36.282-9.798-44.471-11.775
						c-3.272-0.793-9.382-2.22-13.726-3.316c-1.388-1.453-2.992-2.697-4.762-3.676c0.856-10.092,5.216-36.501,6.802-46.011
						c16.408,21.476,37.879,44.54,56.297,64.544C390.536,359.629,390.491,359.707,390.443,359.785z M332.459,371.845
						c3.174-3.429,5.145-7.978,5.262-12.988c9.54,1.306,47.025,6.148,51.047,7.105c0.019,1.995,1.416,5.514,1.416,5.514
						S343.494,371.849,332.459,371.845z M232.501,292.167l1-4l87.521,38.42l-1.927,12.002c0,0-0.791-0.038-1.191-0.038
						c-5.069,0-9.69,1.903-13.196,5.031c-0.703,0.525-1.343,1.141-1.893,1.865C299.552,341.744,232.501,292.167,232.501,292.167z"/>
					<path style="fill:#522016;" d="M400.317,362.972c-1.669,0-3.062,1.391-3.062,3.061c0,1.669,1.393,3.06,3.062,3.06
						c1.668,0,3.06-1.39,3.06-3.06C403.377,364.363,401.985,362.972,400.317,362.972z"/>
					<g>
						<path style="fill:#522016;" d="M325.645,358.752c0,4.086-3.312,7.398-7.397,7.398c-4.086,0-7.398-3.312-7.398-7.398
							c0-4.085,3.312-7.397,7.398-7.397C322.332,351.355,325.645,354.667,325.645,358.752z"/>
						<path style="fill:#949494;" d="M318.673,355.576c-1.67,0-3.064,1.393-3.064,3.064c0,1.672,1.394,3.066,3.064,3.066
							c1.673,0,3.066-1.394,3.066-3.066C321.74,356.969,320.346,355.576,318.673,355.576z"/>
						<g>
							<g>
								<path style="fill:#522016;" d="M345.482,376.51c-0.565,0.166-1.191,0.112-1.744-0.201l-23.627-13.341
									c-1.088-0.613-1.473-1.994-0.855-3.083c0.614-1.087,1.994-1.472,3.082-0.857l23.626,13.34
									c1.087,0.613,1.473,1.994,0.857,3.083C346.519,375.987,346.03,376.353,345.482,376.51z"/>
							</g>
							<path style="fill:#949494;" d="M357.377,372.648c0.379,1.304-0.372,2.671-1.678,3.048l-22.182,6.442
								c-1.306,0.379-2.671-0.372-3.05-1.677l-1.043-3.592c-0.379-1.306,0.373-2.67,1.678-3.048l22.182-6.443
								c1.308-0.38,2.672,0.372,3.05,1.676L357.377,372.648z"/>
						</g>
					</g>
				</g>
				<path style="fill:#522016;" d="M363.013,250.838c-8.596-0.929-34.505,1.91-38.841,2.69c-3.899,0.699-7.407,1.751-10.419,4.818
					c-1.309,1.334-1.74,4.026-0.355,5.338c4.268,4.049,26.478,4.439,32.933,5.737c6.454,1.292,18.486-3.869,19.818-14.752
					C366.414,252.512,364.792,251.032,363.013,250.838z"/>
			</g>
			<g>
				<g>
					<path style="fill:#814113;" d="M379.184,427.467c0.083-2.835-1.157-7.702-1.127-12.019c0.04-7.027-1.134-10.904-1.134-10.904
						s-3.778,1.491-10.056,1.352c-6.275-0.139-7.63-2.059-7.63-2.059s-1.225,4.469-2.866,8.616
						c-1.877,4.733-4.861,8.992-6.522,12.47c-1.067,2.237-0.462,7.608,1.97,10.068c1.482,1.502,3.878,2.686,7.656,3.193
						c8.599,1.143,14.758,0.095,17.723-3.316C378.793,433.035,379.112,429.817,379.184,427.467z"/>
					<path style="fill:none;stroke:#B58E45;stroke-miterlimit:10;" d="M350.468,430.202c0,0-0.074,3.205,7.933,4.424
						c12.447,1.899,19.554-2.76,19.955-5.619"/>
					<g>
						<path style="fill:none;stroke:#B58E45;stroke-miterlimit:10;" d="M360.644,410.813c0,0,7.281-1.222,12.179,0.974"/>
						<path style="fill:none;stroke:#B58E45;stroke-miterlimit:10;" d="M360.129,417.265c0,0,7.281-1.221,12.18,0.974"/>
					</g>
				</g>
				<g>
					<path style="fill:#3D3977;" d="M369.896,229.436c-6.652,1.286-40.21,4.292-40.21,4.292s2.572,39.084,4.079,50.635
						c1.51,11.549,5.304,35.313,6.21,39.509c0.906,4.196,5.031,19.12,5.831,22.395c4.499,18.415,10.055,58.212,10.055,58.212
						s2.638,2.764,11.37,2.777c9.055,0.015,13.856-2.097,13.856-2.097s-0.072-53.745-0.998-62.193
						c-0.925-8.45-5.778-26.927-5.778-26.927l-0.057-37.255c0,0,3.77-17.289,1.611-30.457
						C373.707,235.16,369.896,229.436,369.896,229.436z"/>
				</g>
			</g>
			<g>
				<path style="fill:#EAAA7F;" d="M300.537,179.966c-2.685,1.741-9.142,6.318-15.024,13.517c-7.655,9.37-18.01,27.396-18.01,27.396
					s2.58,9.034,7.778,6.799c5.198-2.233,18.915-9.902,27.772-21.037c3.057-3.844,6.539-8.608,9.787-13.2
					C307.607,190.448,303.331,185.781,300.537,179.966z"/>
				<g>
					<path style="fill:#9F3948;" d="M429.469,131.023c0,0,9.742,70.091,7.536,85.809c-2.207,15.715-78.481,8.944-78.481,8.944
						L347.72,123.008L429.469,131.023z"/>
					<path style="fill:#8F3341;" d="M381.32,126.301c1.063,0.854,2.14,1.724,3.261,2.621c15.341,12.305,16.251,61.347,26.954,77.356
						c6.304,9.423,17.493,10.065,25.635,8.994c-0.044,0.566-0.099,1.088-0.164,1.561c-2.207,15.715-78.481,8.944-78.481,8.944
						L347.72,123.008L381.32,126.301z"/>
					<path style="fill:#FF8D00;" d="M312.918,117.736c0,0,114.687-2.298,117.419-1.678c2.737,0.625,10.662,14.59,1.256,17.738
						c-9.404,3.152-88.677,8.567-88.677,8.567S302.17,142.263,312.918,117.736z"/>
				</g>
				<path style="fill:#D84C21;" d="M376.921,143.277c-0.967-10.658-2.382-14.442-9.025-19.769
					c-6.643-5.327-26.602-9.814-43.638-7.403c-5.717,0.804-15.847,3.987-19.059,4.916c-10.052,2.909-11.063,44.108-11.063,44.108
					s1.604,13.244,2.331,20.224c0.455,4.365,5.103,26.778,2.077,37.092c-1.604,5.466-1.497,12.643-1.497,12.643
					s2.156,11.33,32.488,7.973c12.786-1.414,24.414-2.774,29.871-5.289c5.647-2.604,8.781-4.12,11.026-6.487
					c2.246-2.367-1.184-18.642-1.28-22.28c-0.145-5.499,1.593-15.48,1.458-20.545C370.273,175.694,377.839,153.387,376.921,143.277z
					"/>
				<g>
					<path style="fill:#FF8D00;" d="M322.608,110.799c4.956-1.282,15.495-3.242,20.61,1.545c5.117,4.785,4.623,12.431,1.028,17.623
						c-3.593,5.194-13.844,18.706-13.844,18.706l-9.204-14.708l-9.447,13.816c0,0-6.014-17.226-3.984-25.335
						C309.796,114.339,317.65,112.081,322.608,110.799z"/>
					<g>
						<path style="fill:#FF8D00;" d="M314.614,79.077c0,0,9.555,5.612,14.631,6.692c7.97,1.696,12.212,0.475,18.185,0.813
							c5.977,0.339,9.665-1.788,7.666-4.23c-1.997-2.441-10.682-5.235-10.682-5.235S317.15,79.925,314.614,79.077z"/>
						<g>
							<g>
								<polygon style="fill:#EAAA7F;" points="314.006,106.641 336.46,103.506 340.666,118.576 321.284,133.688 312.51,121.923 
																	"/>
							</g>
							<g>
								<path style="fill:#EAAA7F;" d="M308.302,75.316c3.769-7.515,16.952-9.463,23.287-6.729
									c15.082,6.513,12.331,31.14,2.621,41.407c-8.908,9.418-20.435,5.949-25.55-2.836c-1.928-3.309-2.215-9.228-2.54-13.408
									C305.722,88.661,304.532,82.834,308.302,75.316z"/>
							</g>
							<g>
								<path style="fill:#D58069;" d="M320.061,88.958c0,0,0.144,0.247,0.324,0.685c0.185,0.438,0.407,1.065,0.596,1.827
									c0.183,0.766,0.338,1.65,0.371,2.674l-0.016,0.428l-0.01,0.217l-0.003,0.055l-0.001,0.027l-0.001,0.014v0.007l-0.019,0.094
									l-0.014,0.09c-0.155,0.626-0.403,0.937-0.634,1.249c-0.466,0.568-0.919,0.896-1.317,1.216
									c-0.401,0.304-0.763,0.577-1.009,0.79l-0.243,0.23c-0.045,0.052-0.034-0.024-0.069-0.014
									c-0.05-0.174-0.066-0.044-0.039,0.047c0.023,0.111,0.095,0.253,0.177,0.399c0.167,0.295,0.389,0.601,0.606,0.882
									c0.434,0.573,0.852,1.07,1.135,1.437c0.288,0.362,0.452,0.593,0.452,0.593s-0.284,0.005-0.754-0.074
									c-0.472-0.078-1.131-0.229-1.895-0.566c-0.38-0.175-0.785-0.393-1.208-0.727c-0.211-0.168-0.422-0.37-0.635-0.644
									c-0.206-0.293-0.425-0.595-0.507-1.242c-0.065-0.458,0.066-1.017,0.25-1.389c0.184-0.394,0.409-0.692,0.632-0.941
									c0.44-0.498,0.88-0.833,1.268-1.146c0.389-0.298,0.739-0.582,0.923-0.76c0.083-0.065,0.118-0.17,0.087-0.014l0.029-0.086
									c0.004-0.021-0.034,0.164-0.017,0.084l0.001-0.004l0.002-0.009l0.004-0.018l0.008-0.035l0.032-0.14l0.066-0.278
									c0.166-0.852,0.343-1.724,0.541-2.461c0.2-0.742,0.41-1.368,0.585-1.807C319.926,89.212,320.061,88.958,320.061,88.958z"/>
							</g>
							<g>
								<g>
									<path style="fill:#723016;" d="M331.733,89.127c0.259,0.078,0.161,0.093,0.023-0.04c-0.157-0.153-0.335-0.282-0.509-0.415
										c-0.618-0.474-1.576-0.667-2.313-0.821c-1.132-0.237-3.002-0.096-3.822,0.836c-0.431,0.489-0.195,1.498,0.588,1.421
										c0.442-0.044,0.804-0.18,1.224-0.315c0.892-0.285,1.804-0.162,2.696,0.052c0.615,0.147,1.29,0.67,1.923,0.679
										C332.362,90.535,332.492,89.356,331.733,89.127L331.733,89.127z"/>
								</g>
							</g>
							<g>
								<g>
									<path style="fill:#723016;" d="M310.141,90.574c0.669,0.016,1.368-0.299,2.006-0.458c0.631-0.158,1.34-0.247,1.988-0.153
										c0.465,0.067,0.844,0.36,1.289,0.493c0.743,0.222,1.238-0.595,0.935-1.216c-0.512-1.051-1.96-1.189-2.986-1.152
										c-0.779,0.028-1.552,0.267-2.278,0.533c-0.386,0.141-0.77,0.451-1.143,0.556C309.169,89.397,309.34,90.555,310.141,90.574
										L310.141,90.574z"/>
								</g>
							</g>
							<path style="fill:#412F00;" d="M330.199,93.737c-0.038,1.075-0.941,1.917-2.017,1.879c-1.077-0.038-1.918-0.942-1.879-2.017
								c0.038-1.078,0.94-1.919,2.018-1.881C329.395,91.755,330.237,92.66,330.199,93.737z"/>
							<path style="fill:#412F00;" d="M314.95,93.986c-0.039,1.075-0.941,1.917-2.018,1.879c-1.078-0.038-1.918-0.941-1.879-2.017
								c0.038-1.076,0.94-1.919,2.017-1.879C314.145,92.006,314.988,92.909,314.95,93.986z"/>
							<path style="fill:#723016;" d="M307.806,87.164c5.002,1.44,8.182-2.742,8.182-2.742s1.694,2.081,6.533,0.989
								c4.839-1.092,11.367-4.937,11.367-4.937s-0.398,4.28,1.753,6.376c2.15,2.098,1.194,6.057,1.123,8.076
								c-0.072,2.018,1.482,2.118,2.779,0.397c1.301-1.721,2.798-2.176,4.078-3.392c1.28-1.217,2.845-10.506,1.241-14.1
								c-1.605-3.593-4.451-4.655-4.451-4.655s-0.961-3.113-4.331-5.758c-3.367-2.646-12.476-5.235-21.084-2.571
								c-8.608,2.666-7.905,13.954-7.905,13.954S302.804,85.724,307.806,87.164z"/>
							<path style="fill:#FFFFFF;" d="M321.361,105.664c0,0-3.766-2.193-4.508-0.366c-0.743,1.827,2.33,4.408,5.964,3.918
								c3.633-0.488,6.016-3.906,4.479-5.196C325.759,102.73,321.361,105.664,321.361,105.664z"/>
							<path style="fill:none;stroke:#C16F51;stroke-miterlimit:10;" d="M313.664,112.299c0,0,3.831,3.841,10.76,2.908
								c6.053-0.816,11.361-6.924,11.361-6.924"/>
							<g>
								<path style="fill:#EAAA7F;" d="M341.862,90.278c-3.752,1.884-3.047,6.506-3.607,9.439c0.62,4.675,7.13,3.017,8.63-3.353
									C347.919,92.736,346.074,88.467,341.862,90.278z"/>
							</g>
						</g>
						<path style="fill:#D84C21;" d="M345.188,77.692c-0.333-3.43-1.556-9.308-5.899-13.672c-2.283-2.292-9.684-5.694-15.409-5.494
							c-3.884,0.135-13.108,5.456-14.781,8.423c-1.672,2.966-4.221,10.024-4.246,14.727c0,0,6.973,0.974,13.096,1.338
							C324.072,83.377,345.563,81.55,345.188,77.692z M312.367,79.084c0,0,0.012-5.077,5.533-5.094
							c5.52-0.017,5.173,5.331,5.173,5.331L312.367,79.084z"/>
					</g>
				</g>
				<g>
					<path style="fill:#522016;" d="M308.717,120.913c0,0-5.542,4.881-8.036,14.585c-2.493,9.704-5.038,39.377-5.038,39.377
						s-3.339-9.805-4.154-20.189c-0.852-10.878,0.382-24.207,4.06-28.883C298.222,122.402,303.629,118.104,308.717,120.913z"/>
					<path style="fill:#522016;" d="M352.77,153.54c-1.121-13.069-0.571-21.973,1.156-26.913c1.508-4.311,5.782-6.858,5.781-6.858
						c0,0-2.595-2.256-7.426-2.761c-4.832-0.5-9.038,8.695-9.875,14.602c-0.838,5.911-2.353,15.044-0.203,27.907
						c2.152,12.864,11.434,31.992,14.892,33.371C360.555,194.27,354.869,178.012,352.77,153.54z"/>
				</g>
				<g>
					<path style="fill:#EAAA7F;" d="M279.622,224.074c-1.71,4.193-6.224,5.452-11.908,6.462c-5.685,1.012-7.274,0.464-11.218,1.242
						c-3.945,0.779-7.855,1.807-8.433-0.647c-0.581-2.452,1.49-3.993,4.19-4.605c2.703-0.614,9.297-4.274,9.297-4.274
						s-2.999-1.625-5.832-2.006c-2.834-0.379-5.103-0.334-7.109,1.707c-2.005,2.036-3.596,5.286-5.402,5.021
						c-1.806-0.265-1.956-3.282-1.956-3.282s-1.275-0.082-1.722-1.542c-0.447-1.456,4.559-5.665,6.348-7.423
						c1.788-1.756,6.943-2.947,10.174-3.378c3.23-0.43,19.302,2.486,19.302,2.486S281.774,218.794,279.622,224.074z"/>
					<path style="fill:none;stroke:#D58069;stroke-miterlimit:10;" d="M241.291,223.588c0,0,1.345-2.498,2.833-4.518
						c1.487-2.016,9.917-5.333,9.917-5.333"/>
				</g>
				<g>
					<g>
						<path style="fill:#EAAA7F;" d="M385.09,152.263c0,0,10.496,30.662,10.054,38.845c-0.444,8.183-2.855,18.651-7.171,25.581
							c-4.317,6.93-10.755,14.742-12.071,16.4c-2.369,2.992-9.949-0.282-10.252-2.542c-0.163-1.219,1.494-16.334,2.732-22.346
							c1.237-6.013,4.71-14.031,4.71-14.031s-5.914-14.239-7.402-20.463c-1.242-5.188-2.308-13.5-2.308-13.5
							s3.883-4.349,9.789-6.765C379.076,151.025,385.09,152.263,385.09,152.263z"/>
						<g>
							<path style="fill:#EAAA7F;" d="M347.335,249.838c0.332-1.617,2.776-2.574,5.017-4.37c1.425-1.145,2.873-6.132,2.873-6.132
								s-0.448-0.629-1.934,1.152c-1.485,1.777-3.882,0.956-4.346-0.936c-0.465-1.89,2.176-5.985,4.675-6.73
								c2.499-0.746,6.211-4.766,9.34-5.924c3.13-1.158,9.835,0.45,11.994,4.326c2.158,3.876,0.133,10.013-1.554,15.065
								c-1.507,4.516-2.127,5.809-5.902,9.257c-3.779,3.446-4.652,3.852-6.328,3.983c-1.675,0.131-1.855-1.6-1.855-1.6
								s-1.776,1.701-3.941,0.83c-2.162-0.872-1.135-2.637-1.135-2.637s-2.546,0.538-4.351-0.851
								c-1.803-1.389,0.308-2.717,0.308-2.717S347,251.455,347.335,249.838z"/>
							<path style="fill:none;stroke:#C16F51;stroke-miterlimit:10;" d="M367.413,248.269c0,0-0.563,3.654-2.518,5.612
								c-1.951,1.959-5.58,4.047-5.58,4.047"/>
							<path style="fill:none;stroke:#C16F51;stroke-miterlimit:10;" d="M363.7,245.07c0,0-1.158,4.076-2.722,6.759
								c-1.029,1.765-4.475,3.596-6.739,4.292"/>
							<path style="fill:none;stroke:#C16F51;stroke-miterlimit:10;" d="M359.527,241.968c0,0-0.872,4.384-3.287,6.438
								c-2.419,2.058-5.634,3.839-5.634,3.839"/>
						</g>
					</g>
					<path style="fill:#D84C21;" d="M354.957,122.424c10.251-7.836,15.933,0.246,22.664,10.589
						c6.732,10.343,8.885,21.151,8.885,21.151s-11.825,1.567-16.181,3.917c-4.355,2.35-7.291,4.324-7.291,4.324
						S345.541,129.623,354.957,122.424z"/>
					<path style="fill:none;stroke:#7A2415;stroke-miterlimit:10;" d="M353.25,139.596c0,0,2.268,8.633,4.177,12.689
						c1.909,4.055,4.626,9.977,4.626,9.977"/>
				</g>
			</g>
		</g>
	</g>
	<g>
		<ellipse style="fill:#D9D9D9;" cx="120.227" cy="442.26" rx="66" ry="17"/>
		<g>
			<g>
				<g>
					<path style="fill:#814113;" d="M78.783,440.823c0.125-2.897,1.689-7.801,1.973-12.211c0.474-7.18,1.902-11.074,1.902-11.074
						s3.574,1.734,9.705,1.947c6.128,0.211,7.591-1.676,7.591-1.676s0.867,4.637,2.166,8.965c1.484,4.941,4.081,9.459,5.449,13.104
						c0.878,2.346-0.103,7.797-2.655,10.176c-1.556,1.447-3.977,2.525-7.696,2.828c-8.468,0.686-14.395-0.734-17.04-4.387
						C78.756,446.532,78.681,443.229,78.783,440.823z"/>
					<path style="fill:none;stroke:#B58E45;stroke-miterlimit:10;" d="M106.58,445.233c0,0-0.162,3.281-8.057,4.076
						c-12.274,1.236-18.863-3.922-19.045-6.865"/>
					<g>
						<path style="fill:none;stroke:#B58E45;stroke-miterlimit:10;" d="M98.074,424.856c0,0-7.01-1.656-11.947,0.309"/>
						<path style="fill:none;stroke:#B58E45;stroke-miterlimit:10;" d="M98.104,431.475c0,0-7.008-1.656-11.946,0.311"/>
					</g>
				</g>
				<g>
					<path style="fill:#814113;" d="M165.507,431.21c-1.987-1.262-6.422-3.992-8.173-5.863c-4.248-4.531-8.689-8.656-10.14-9.996
						l-18.964,0.344c0,0-2.013,11.412-1.376,15.647c0.448,2.947,2.544,3.424,6.797,5.816c2.664,1.506,8.232,5.824,12.395,7.713
						c4.428,2,15.708,1.725,20.169-0.336C175.572,440.211,171.121,434.762,165.507,431.21z"/>
					<g>
						<path style="fill:none;stroke:#B58E45;stroke-miterlimit:10;" d="M141.352,422.659c0,0,4.634-2.428,9.712-2.141"/>
						<path style="fill:none;stroke:#B58E45;stroke-miterlimit:10;" d="M144.876,427.112c0,0,4.636-2.428,9.716-2.137"/>
						<path style="fill:none;stroke:#B58E45;stroke-miterlimit:10;" d="M156.679,445.993c-1.712-0.191-4.764-0.297-8.012-1.951
							c-3.248-1.656-8.582-8.025-13.937-9.873c-5.351-1.854-7.229-5.164-7.229-5.164"/>
					</g>
				</g>
			</g>
			<g>
				<path style="fill:#3D3977;" d="M155.874,235.097c0,0-33.918,0.601-40.736,0.009c0,0-3.045,6.319-3.445,20.126
					c-0.399,13.811,5.671,31.213,5.671,31.213l4.862,38.148c0,0-3.608,17.765-3.408,26.577c0.203,8.81,4.046,44.578,4.046,44.578
					l2.512,21.772c0,0,7.089,1.572,16.133,0.561c8.721-0.977,10.986-4.117,10.986-4.117s2.487-50.315,2.626-54.973
					c0.14-4.656,2.081-26.017,2.428-30.438c0.343-4.425,0.709-24.065,1.181-39.323C159.203,273.97,155.874,235.097,155.874,235.097z
					"/>
				<path style="fill:#3D3977;" d="M84.945,242.233c0,0-4.379,5.249-5.888,18.574c-1.508,13.326-0.238,29.491-0.238,29.491
					l0.153,39.056c0,0-2.364,17.347-2.878,25.897c-0.514,8.551,1.96,62.94,1.96,62.94s4.844,2.137,13.792,2.123
					c8.627-0.014,11.104-2.809,11.104-2.809s3.603-40.276,7.177-58.913c0.633-3.314,4.006-18.417,4.702-22.664
					c0.694-4.246,3.268-27.36,5.527-38.799c2.466-12.495,3.471-52.181,3.471-52.181S91.579,243.536,84.945,242.233z"/>
				<path style="fill:none;stroke:#6E77A4;stroke-miterlimit:10;" d="M119.365,298.636c0,0,7.713-34.468,6.656-43.962"/>
			</g>
			<g>
				<path style="fill:#D84C21;" d="M74.941,158.981c0.621-10.684,1.912-14.512,8.379-20.051c6.466-5.54,26.27-10.672,43.375-8.814
					c5.74,0.618,15.976,3.44,19.208,4.296c4.593,1.22,9.735,1.581,12.934,7.062c3.199,5.48,9.493,26.36,9.53,32.61
					c0.026,4.32-8.976,4.054-8.976,4.054s1.001,13.245,0.212,16.405c-2.033,8.142-1.854,53.612-1.854,53.612
					s-1.788,11.393-32.212,9.022c-12.825-0.998-24.491-1.981-30.027-4.318c-5.729-2.419-8.91-3.833-11.23-6.126
					c-2.321-2.293,0.579-18.67,0.557-22.311c-0.033-5.5-2.093-15.42-2.124-20.487C82.636,191.166,74.352,169.116,74.941,158.981z"/>
				<path style="fill:none;stroke:#7A2415;stroke-miterlimit:10;" d="M156.549,149.154c0,0,2.741,12.317,2.784,19.317"/>
				<path style="fill:#FF8D00;" d="M128.172,124.759c-4.995-1.12-15.591-2.738-20.55,2.212c-4.958,4.948-4.217,12.575-0.456,17.647
					c3.759,5.075,14.443,18.247,14.443,18.247l8.722-14.998l9.891,13.503c0,0,5.451-17.412,3.16-25.451
					C141.092,127.882,133.169,125.879,128.172,124.759z"/>
			</g>
			<g>
				<g>
					<polygon style="fill:#EAAA7F;" points="136.079,120.545 113.344,111.161 108.596,132.944 130.377,148.258 137.875,135.958 
											"/>
				</g>
				<path style="fill:#592221;" d="M138.158,81.261c0,0,7.909,3.525,8.77,13.777c0.861,10.26-3.414,11.329-7.155,9.196
					c-3.74-2.134-15.714-13.774-15.714-13.774l3.307-12.077L138.158,81.261z"/>
				<path style="fill:#EAAA7F;" d="M141.685,87.694c4.817,6.139,3.936,11.084,3.785,18.351c-0.15,7.046-1.314,13.637-6.139,17.368
					c-6.406,4.945-14.488,5.482-21.767-0.757c-3.248-2.787-7.753-8.547-10.253-14.997c-3.068-7.919,1.596-24.522,9.815-28.279
					C125.348,75.627,136.874,81.556,141.685,87.694z"/>
				<path style="fill:#592221;" d="M102.118,90.004c1.279-5.598,6.629-7.037,6.629-7.037l7.932,3.849c0,0,2.202,4.573-2.481,8.261
					c-1.576,1.242-1.278,6.568-0.288,10.916c0.993,4.348-1.161,4.734-2.547,2.199c-1.383-2.533-5.015-2.022-6.92-2.675
					C102.538,104.865,101.381,93.22,102.118,90.004z"/>
				<path style="fill:none;stroke:#C16F51;stroke-miterlimit:10;" d="M136.094,125.659c0,0-5.422,2.951-11.083,1.397
					c-5.665-1.555-10.542-8.2-10.542-8.2"/>
				<path style="fill:#592221;" d="M105.228,85.829c0,0-0.23-13.509,15.906-14.548c11.647-0.75,21.627,4.838,23.976,17.396
					c0.86,4.598,1.116,8.286-7.979,6.775c-9.095-1.511-24.33-5.443-26.045-6.268C109.372,88.359,105.228,85.829,105.228,85.829z"/>
				<path style="fill:#EAAA7F;" d="M109.847,104.688c-2.291-3.547-7.875-4.304-7.724,1.627c0.126,4.954,6.25,10.764,10.078,8.226
					C114.273,113.168,112.136,108.239,109.847,104.688z"/>
				<g>
					<g>
						<path style="fill:#412500;" d="M137.637,104.633c0.616,0.907,1.853,1.149,2.762,0.534c0.908-0.615,1.151-1.849,0.537-2.761
							c-0.615-0.91-1.851-1.153-2.763-0.536C137.262,102.485,137.022,103.721,137.637,104.633z"/>
					</g>
					<g>
						<path style="fill:#412500;" d="M122.822,104.698c0.495,0.979,1.688,1.376,2.668,0.88c0.984-0.493,1.379-1.688,0.886-2.671
							c-0.496-0.981-1.692-1.374-2.674-0.878C122.724,102.522,122.328,103.716,122.822,104.698z"/>
					</g>
					<g>
						<path style="fill:#D58069;" d="M133.52,98.922c0.564,1.168,0.974,2.357,1.356,3.55c0.372,1.194,0.682,2.397,0.946,3.606
							l-0.612-0.945c0.252,0.122,0.438,0.225,0.645,0.352c0.202,0.122,0.402,0.247,0.591,0.392c0.387,0.278,0.753,0.6,1.103,0.977
							c0.34,0.384,0.68,0.826,0.926,1.416c0.064,0.139,0.119,0.299,0.164,0.473c0.05,0.162,0.088,0.338,0.099,0.536l0.019,0.284
							l0.001,0.117l-0.001,0.01l-0.003,0.02l-0.005,0.039l-0.009,0.078c-0.011,0.108-0.037,0.276-0.069,0.408
							c-0.032,0.12-0.064,0.201-0.099,0.301c-0.319,0.717-0.746,1.1-1.152,1.417c-0.413,0.313-0.835,0.532-1.262,0.716
							c-0.859,0.351-1.745,0.554-2.684,0.553c0.557-0.747,1.118-1.395,1.615-2.022c0.246-0.311,0.478-0.616,0.652-0.9
							c0.176-0.276,0.287-0.563,0.251-0.637c-0.007,0-0.005-0.019-0.014-0.001c-0.016,0.028-0.021,0.094-0.021,0.099l-0.005-0.079
							l-0.003-0.039l-0.001-0.02l-0.001-0.01c-0.001-0.022,0.002,0.188,0.001,0.099h-0.001l-0.001-0.001l-0.025-0.026
							c-0.007-0.012-0.02-0.038-0.042-0.073c-0.012-0.029-0.03-0.064-0.064-0.11c-0.048-0.079-0.126-0.187-0.203-0.296
							c-0.081-0.113-0.188-0.222-0.287-0.347c-0.213-0.242-0.462-0.489-0.72-0.743l-0.787-0.737l-0.591-0.554l-0.021-0.391
							c-0.066-1.236-0.089-2.478-0.047-3.728C133.208,101.454,133.287,100.198,133.52,98.922z"/>
					</g>
					<g>
						<g>
							<path style="fill:#592221;" d="M136.969,100.412c1.157-0.323,2.182-0.974,3.403-0.711c0.593,0.128,3.08,1.398,3.08-0.046
								c0-1.235-2.907-1.56-3.761-1.627c-1.021-0.08-2.394,0.707-3.186,1.285C135.979,99.696,136.272,100.606,136.969,100.412
								L136.969,100.412z"/>
						</g>
					</g>
					<g>
						<g>
							<path style="fill:#592221;" d="M128.438,99.947c-1.217-0.554-2.443-1.023-3.748-1.33c-1.742-0.411-3.856,0.846-5.362,1.612
								c-0.547,0.278-0.433,1.202,0.173,1.327c0.029,0.006,0.058,0.012,0.087,0.018c0.327,0.067,0.634-0.042,0.815-0.331
								c0.291-0.468,0.267-0.77,0.329-1.269c0.017-0.135-0.103-0.232-0.211-0.277c-0.015-0.006-0.029-0.012-0.044-0.018
								c-0.215-0.088-0.448,0.217-0.309,0.402c-0.301-0.4-0.263,0.081-0.281,0.076c0,0.466,0,0.933,0,1.399
								c1.625-0.64,3.261-1.883,5.046-1.463c1.038,0.244,2.069,0.541,3.102,0.811C128.591,101.05,128.992,100.2,128.438,99.947
								L128.438,99.947z"/>
						</g>
					</g>
					<g>
						<path style="fill:#FFFFFF;" d="M132.54,115.95c0,0-1.396-0.63-3.885-1.646c-2.49-1.018-3.002,0.282-2.956,2.258
							c0.046,1.978,3.717,3.985,6.323,3.842c3.803-0.209,5.645-1.761,5.159-4.154C136.698,113.856,132.54,115.95,132.54,115.95z"/>
					</g>
				</g>
				<g>
					<path style="fill:#FF8D00;" d="M113.496,92.355c0,0,9.982,5.194,15.079,5.8c8.006,0.952,12.038-0.949,17.937-1.293
						c5.902-0.344,9.293-3.204,7.069-5.727c-2.223-2.522-8.437-4.27-8.437-4.27S116.078,93.006,113.496,92.355z"/>
					<path style="fill:#D84C21;" d="M101.298,93.821c0,0,7.751,0.203,14.5-0.088c6.748-0.291,30.067-4.278,29.202-7.927
						c-0.77-3.245-2.803-8.733-8.075-12.451c-2.769-1.953-11.277-4.432-17.522-3.644c-4.238,0.534-13.711,6.583-15.192,9.592
						C102.729,82.312,100.771,89.324,101.298,93.821z"/>
				</g>
			</g>
			<g>
				<g>
					
						<rect x="113.743" y="164.751" transform="matrix(1 -0.006 0.006 1 -1.2245 0.9465)" style="fill:#FFDD96;" width="84.29" height="76.359"/>
					
						<rect x="108.751" y="164.88" transform="matrix(1 -0.006 0.006 1 -1.2252 0.8174)" style="fill:#EECE80;" width="51.69" height="76.359"/>
					
						<rect x="172.919" y="164.605" transform="matrix(1 -0.006 0.006 1 -1.0742 1.0911)" style="fill:#FFF6BD;" width="13.802" height="27.019"/>
					
						<rect x="122.404" y="164.911" transform="matrix(1 -0.006 0.006 1 -1.0768 0.7854)" style="fill:#FFE7AE;" width="13.805" height="27.02"/>
				</g>
				<g>
					<path style="fill:none;stroke:#7A2415;stroke-miterlimit:10;" d="M105.232,151.798c0,0,2.765,16.317,0.805,22.996"/>
					<g>
						<path style="fill:#EAAA7F;" d="M162.336,230.205c-0.229,0.008-0.466,0.002-0.716-0.015c0.748-0.054,1.459-0.127,2.088-0.228
							c3.55-0.538,5.012-2.087,4.714-3.304c-0.886-3.63-2.629-1.865-6.207-1.744c-1.451,0.05-3.392-0.468-5.189-1.098
							c0.537-0.347,1.313-0.656,2.249-0.404c3.073,0.823,5.775-1.484,4.896-2.994c-0.887-1.509-5.949-4.232-11.06-2.609
							c-3.835,1.214-8.436,1.049-10.484,2.236c-2.048,1.187-2.63,2.071-2.63,2.071s-14.072-10.442-17.752-12.753
							c-3.68-2.311-13.369-5.919-13.369-5.919s-1.054-8.994-2.095-15.654c-1.041-6.661-1.742-12.323-1.742-12.323l-24.989,1.818
							c0,0,1.241,10.416,3.625,21.285c2.25,10.255,5.518,20.913,9.722,23.605c2.185,1.399,9.958,5.303,20.648,9.238
							c10.69,3.936,22.597,5.304,23.689,5.403c2.064,1.162,2.621,1.411,4.127,2.325c2.467,1.497,5.393,2.067,7.958,2.323
							c2.333,0.703,5.023,1.45,7.366,1.554c3.666,0.163,5.382,0.034,6.221-1.1c0.84-1.136,0.324-1.613-0.611-2.136
							c0.023-0.004,0.045-0.011,0.066-0.007c1.895-0.081,4.113-0.665,4.498-2.708c0.383-2.04-1.292-1.605-4.214-1.721
							c0.235-0.028,0.682-0.093,0.682-0.093s4.607,0.071,5.026-3.143C169.373,228.142,165.916,230.083,162.336,230.205z"/>
						<path style="fill:none;stroke:#C16F51;stroke-miterlimit:10;" d="M155.408,228.973c0,0,3.299,1.014,6.929,1.232"/>
						<path style="fill:none;stroke:#C16F51;stroke-miterlimit:10;" d="M153.429,234.085c0,0,5.613,2.088,10.4,1.167"/>
						<path style="fill:none;stroke:#C16F51;stroke-miterlimit:10;" d="M152.169,238.331c0,0,4.84,2.586,10.694,1.444"/>
						<path style="fill:none;stroke:#C16F51;stroke-miterlimit:10;" d="M154.026,222.843c0,0,3.286,1.789,6.801,2.272"/>
					</g>
				</g>
				<g>
					<path style="fill:#EAAA7F;" d="M199.454,212.415c-3.621-0.112-5.136,2.85-5.685,4.854c-0.549,2.005,1.335,2.55,1.335,2.55
						s-2.593,2.651-1.676,4.152c0.917,1.5,0.917,1.5,0.917,1.5s-1.921,1.965-1.329,3.635c0.877,2.454,2.533,1.965,2.533,1.965
						s-1.279,2.965,0.06,3.725c1.338,0.76,5.354-0.314,5.982-2.913c0.629-2.603-1.216-3.441-1.216-3.441s1.936-1.917,1.678-4.156
						c-0.259-2.236-1.726-1.729-1.726-1.729s3.98-2.565,1.876-5.644C202.204,216.914,203.072,212.53,199.454,212.415z"/>
					<path style="fill:none;stroke:#C16F51;stroke-miterlimit:10;" d="M201.626,217.059c0,0-5.825,1.721-6.522,2.759"/>
					<path style="fill:none;stroke:#C16F51;stroke-miterlimit:10;" d="M200.328,222.558c0,0-4.283,1.704-5.693,2.843"/>
					<path style="fill:none;stroke:#C16F51;stroke-miterlimit:10;" d="M199.837,228.287c0,0-2.487,0.829-4.288,2.784"/>
				</g>
			</g>
		</g>
	</g>
</g>
</svg>
