<svg width="312" height="94" viewBox="0 0 312 94" fill="none" xmlns="http://www.w3.org/2000/svg">
<path d="M13.9113 81.5V70.1H32.2113C35.5447 70.1 38.078 69.2 39.8113 67.4C41.5446 65.5333 42.4113 63 42.4113 59.8C42.4113 56.6 41.5446 54.1333 39.8113 52.4C38.078 50.6 35.5447 49.7 32.2113 49.7H13.9113V41H31.2113C36.078 41 40.4113 41.6 44.2113 42.8C48.078 43.9333 51.078 45.8667 53.2113 48.6C55.4113 51.3333 56.5113 55 56.5113 59.6V61C56.5113 65.3333 55.5447 69.0333 53.6113 72.1C51.7446 75.1 48.9113 77.4333 45.1113 79.1C41.378 80.7 36.7447 81.5 31.2113 81.5H13.9113ZM2.01131 81.5V7.5H15.9113V81.5H2.01131ZM13.9113 47.4V38.7H29.5113C32.9113 38.7 35.4113 37.8 37.0113 36C38.6113 34.2 39.4113 31.8 39.4113 28.8C39.4113 25.8 38.6113 23.4 37.0113 21.6C35.4113 19.8 32.9113 18.9 29.5113 18.9H13.9113V7.5H28.2113C36.478 7.5 42.7446 9.23333 47.0113 12.7C51.3446 16.1667 53.5113 21.1333 53.5113 27.6V29C53.5113 33.5333 52.4113 37.1667 50.2113 39.9C48.078 42.5667 45.1113 44.5 41.3113 45.7C37.5113 46.8333 33.1447 47.4 28.2113 47.4H13.9113ZM70.051 81V8H83.951V81H70.051ZM63.251 18.4V8H83.951V18.4H63.251ZM102.012 81V26.7H115.912V81H102.012ZM94.4117 37.1V26.7H115.912V37.1H94.4117ZM107.112 20.2C104.378 20.2 102.345 19.5 101.012 18.1C99.7451 16.6333 99.1117 14.8 99.1117 12.6C99.1117 10.4 99.7451 8.6 101.012 7.2C102.345 5.79999 104.378 5.09999 107.112 5.09999C109.845 5.09999 111.845 5.79999 113.112 7.2C114.378 8.6 115.012 10.4 115.012 12.6C115.012 14.8 114.378 16.6333 113.112 18.1C111.845 19.5 109.845 20.2 107.112 20.2ZM155.123 81.7C150.123 81.7 145.99 81.0667 142.723 79.8C139.523 78.4667 137.123 76.2667 135.523 73.2C133.923 70.0667 133.123 65.8667 133.123 60.6L133.223 11.4H146.223L146.123 61.5C146.123 64.1667 146.823 66.2333 148.223 67.7C149.69 69.1 151.757 69.8 154.423 69.8H162.923V81.7H155.123ZM124.523 36.9V26.7H162.923V36.9H124.523ZM170.682 81V70L197.482 37.8V39.4L195.382 36.6L197.082 37.4H170.582V26.7H211.982V37.7L185.182 69.9V68.4L187.382 71.2L185.682 70.3H213.082V81H170.682Z" fill="black"/>
<path d="M266.783 56.006L266.783 56.0061L232.083 90.8549C229.897 93.0483 226.354 93.0484 224.168 90.8549C221.978 88.6579 221.978 85.0951 224.168 82.8989L224.168 82.8989L253.859 53.1087C253.859 53.1086 253.859 53.1086 253.859 53.1085C257.216 49.7415 257.216 44.284 253.859 40.9169C253.859 40.9169 253.859 40.9168 253.859 40.9168L224.142 11.1014L223.091 12.1489L224.142 11.1013C221.953 8.90487 221.953 5.34174 224.142 3.14526C226.328 0.951567 229.872 0.951606 232.058 3.14523L232.058 3.14526L266.779 37.9807C266.779 37.9807 266.779 37.9808 266.779 37.9808C271.739 42.9575 271.741 51.0275 266.783 56.006Z" stroke="black" stroke-width="3"/>
<path d="M306.783 56.006L306.783 56.0061L272.083 90.8549C269.897 93.0483 266.354 93.0484 264.168 90.8549C261.978 88.6579 261.978 85.0951 264.168 82.8989L264.168 82.8989L293.859 53.1087C293.859 53.1086 293.859 53.1086 293.859 53.1085C297.216 49.7415 297.216 44.284 293.859 40.9169C293.859 40.9169 293.859 40.9168 293.859 40.9168L264.142 11.1014L263.091 12.1489L264.142 11.1013C261.953 8.90487 261.953 5.34174 264.142 3.14526C266.328 0.951567 269.872 0.951606 272.058 3.14523L272.058 3.14526L306.779 37.9807C306.779 37.9807 306.779 37.9808 306.779 37.9808C311.739 42.9575 311.741 51.0275 306.783 56.006Z" stroke="black" stroke-width="3"/>
</svg>
