<svg xmlns="http://www.w3.org/2000/svg" width="128" height="128" viewBox="0 0 128 128">
  <title>EARTH</title>
  <g>
    <path d="M107.774,64a43.505,43.505,0,1,1-43.5-43.5c.98,0,1.95.03,2.91.1A43.5,43.5,0,0,1,107.774,64Z" fill="#f3f3f3"/>
    <path d="M69.25,30.25c-.654,5.41-10.717,2.977-13.757,5.337C51.463,38.7,55.66,48.94,51,51c-3.25,1.44-12.48-.63-15.5,1.25-2.47,1.54-3.04,2.95-5.75,4-2.37.91-5.846-1.48-7.876-2.01a43.522,43.522,0,0,1,42.4-33.74c.98,0,1.95.03,2.91.1C67.685,23.19,69.568,27.622,69.25,30.25Z" fill="#c4e59e"/>
    <path d="M107.774,64a43.271,43.271,0,0,1-.85,8.58c-.89-.14-11.174,3.17-15.353-.33-4.636-3.882.963-9.383.179-11.5-2.5-6.75-9.965-6.275-14.5-8.25-3.355-1.461-1.473-7.513.69-10.46C82,36.51,89.305,39.09,92.6,38.31a32.165,32.165,0,0,0,5.389-1.8A43.314,43.314,0,0,1,107.774,64Z" fill="#c4e59e"/>
    <path d="M72.964,88.14c1.911-5.01-6.067-9.492-6.371-17.18-.166-4.194-1.779-11.567-5.935-12.153-3.536-.5-11.6,10.317-14.75,12-4.33,2.322-5.454-1.1-9.783,1.218-1.74.933-3.682,2.145-3.944,4.1-.219,1.64.851,3.144,1.865,4.452l6.865,8.853a12.874,12.874,0,0,0,3.722,3.644c2.515,1.377,11.525,3.515,14.239,3.878,1.966.263,4.161,1.655,6.128,1.542C69.468,98.244,71.553,91.839,72.964,88.14Z" fill="#c4e59e"/>
  </g>
</svg>
